<mxfile host="app.diagrams.net" agent="Mozilla/5.0 (Windows NT 10.0; Win64; x64) AppleWebKit/537.36 (KHTML, like Gecko) Chrome/122.0.0.0 Safari/537.36" version="26.1.0">
  <diagram id="C5RBs43oDa-KdzZeNtuy" name="Page-1">
    <mxGraphModel dx="2625" dy="1305" grid="1" gridSize="10" guides="1" tooltips="1" connect="1" arrows="1" fold="1" page="1" pageScale="1" pageWidth="3300" pageHeight="4681" math="0" shadow="0">
      <root>
        <mxCell id="WIyWlLk6GJQsqaUBKTNV-0" />
        <mxCell id="WIyWlLk6GJQsqaUBKTNV-1" parent="WIyWlLk6GJQsqaUBKTNV-0" />
        <mxCell id="9tX9sQvc6Bi1-8wxv7hh-49" value="Person" style="swimlane;fontStyle=1;align=center;verticalAlign=top;childLayout=stackLayout;horizontal=1;startSize=26;horizontalStack=0;resizeParent=1;resizeParentMax=0;resizeLast=0;collapsible=1;marginBottom=0;whiteSpace=wrap;html=1;" vertex="1" parent="WIyWlLk6GJQsqaUBKTNV-1">
          <mxGeometry x="1000" y="230" width="380" height="632" as="geometry">
            <mxRectangle x="1020" y="480" width="80" height="30" as="alternateBounds" />
          </mxGeometry>
        </mxCell>
        <mxCell id="9tX9sQvc6Bi1-8wxv7hh-50" value="- id: int&amp;nbsp;" style="text;strokeColor=none;fillColor=none;align=left;verticalAlign=top;spacingLeft=4;spacingRight=4;overflow=hidden;rotatable=0;points=[[0,0.5],[1,0.5]];portConstraint=eastwest;whiteSpace=wrap;html=1;" vertex="1" parent="9tX9sQvc6Bi1-8wxv7hh-49">
          <mxGeometry y="26" width="380" height="26" as="geometry" />
        </mxCell>
        <mxCell id="9tX9sQvc6Bi1-8wxv7hh-167" value="- name: string&amp;nbsp;" style="text;strokeColor=none;fillColor=none;align=left;verticalAlign=top;spacingLeft=4;spacingRight=4;overflow=hidden;rotatable=0;points=[[0,0.5],[1,0.5]];portConstraint=eastwest;whiteSpace=wrap;html=1;" vertex="1" parent="9tX9sQvc6Bi1-8wxv7hh-49">
          <mxGeometry y="52" width="380" height="26" as="geometry" />
        </mxCell>
        <mxCell id="9tX9sQvc6Bi1-8wxv7hh-53" value="- age: int" style="text;strokeColor=none;fillColor=none;align=left;verticalAlign=top;spacingLeft=4;spacingRight=4;overflow=hidden;rotatable=0;points=[[0,0.5],[1,0.5]];portConstraint=eastwest;whiteSpace=wrap;html=1;" vertex="1" parent="9tX9sQvc6Bi1-8wxv7hh-49">
          <mxGeometry y="78" width="380" height="26" as="geometry" />
        </mxCell>
        <mxCell id="9tX9sQvc6Bi1-8wxv7hh-54" value="- tele: string" style="text;strokeColor=none;fillColor=none;align=left;verticalAlign=top;spacingLeft=4;spacingRight=4;overflow=hidden;rotatable=0;points=[[0,0.5],[1,0.5]];portConstraint=eastwest;whiteSpace=wrap;html=1;" vertex="1" parent="9tX9sQvc6Bi1-8wxv7hh-49">
          <mxGeometry y="104" width="380" height="26" as="geometry" />
        </mxCell>
        <mxCell id="9tX9sQvc6Bi1-8wxv7hh-55" value="- sex: string" style="text;strokeColor=none;fillColor=none;align=left;verticalAlign=top;spacingLeft=4;spacingRight=4;overflow=hidden;rotatable=0;points=[[0,0.5],[1,0.5]];portConstraint=eastwest;whiteSpace=wrap;html=1;" vertex="1" parent="9tX9sQvc6Bi1-8wxv7hh-49">
          <mxGeometry y="130" width="380" height="26" as="geometry" />
        </mxCell>
        <mxCell id="9tX9sQvc6Bi1-8wxv7hh-115" value="- indiv: string" style="text;strokeColor=none;fillColor=none;align=left;verticalAlign=top;spacingLeft=4;spacingRight=4;overflow=hidden;rotatable=0;points=[[0,0.5],[1,0.5]];portConstraint=eastwest;whiteSpace=wrap;html=1;" vertex="1" parent="9tX9sQvc6Bi1-8wxv7hh-49">
          <mxGeometry y="156" width="380" height="26" as="geometry" />
        </mxCell>
        <mxCell id="9tX9sQvc6Bi1-8wxv7hh-51" value="" style="line;strokeWidth=1;fillColor=none;align=left;verticalAlign=middle;spacingTop=-1;spacingLeft=3;spacingRight=3;rotatable=0;labelPosition=right;points=[];portConstraint=eastwest;strokeColor=inherit;" vertex="1" parent="9tX9sQvc6Bi1-8wxv7hh-49">
          <mxGeometry y="182" width="380" height="8" as="geometry" />
        </mxCell>
        <mxCell id="9tX9sQvc6Bi1-8wxv7hh-52" value="+ Person()" style="text;strokeColor=none;fillColor=none;align=left;verticalAlign=top;spacingLeft=4;spacingRight=4;overflow=hidden;rotatable=0;points=[[0,0.5],[1,0.5]];portConstraint=eastwest;whiteSpace=wrap;html=1;" vertex="1" parent="9tX9sQvc6Bi1-8wxv7hh-49">
          <mxGeometry y="190" width="380" height="26" as="geometry" />
        </mxCell>
        <mxCell id="9tX9sQvc6Bi1-8wxv7hh-57" value="+ Person(name: string, age: int, tele: string, sex: string, indiv: string)" style="text;strokeColor=none;fillColor=none;align=left;verticalAlign=top;spacingLeft=4;spacingRight=4;overflow=hidden;rotatable=0;points=[[0,0.5],[1,0.5]];portConstraint=eastwest;whiteSpace=wrap;html=1;" vertex="1" parent="9tX9sQvc6Bi1-8wxv7hh-49">
          <mxGeometry y="216" width="380" height="26" as="geometry" />
        </mxCell>
        <mxCell id="9tX9sQvc6Bi1-8wxv7hh-168" value="+ setId(): void" style="text;strokeColor=none;fillColor=none;align=left;verticalAlign=top;spacingLeft=4;spacingRight=4;overflow=hidden;rotatable=0;points=[[0,0.5],[1,0.5]];portConstraint=eastwest;whiteSpace=wrap;html=1;" vertex="1" parent="9tX9sQvc6Bi1-8wxv7hh-49">
          <mxGeometry y="242" width="380" height="26" as="geometry" />
        </mxCell>
        <mxCell id="9tX9sQvc6Bi1-8wxv7hh-169" value="+ getId(): int" style="text;strokeColor=none;fillColor=none;align=left;verticalAlign=top;spacingLeft=4;spacingRight=4;overflow=hidden;rotatable=0;points=[[0,0.5],[1,0.5]];portConstraint=eastwest;whiteSpace=wrap;html=1;" vertex="1" parent="9tX9sQvc6Bi1-8wxv7hh-49">
          <mxGeometry y="268" width="380" height="26" as="geometry" />
        </mxCell>
        <mxCell id="9tX9sQvc6Bi1-8wxv7hh-63" value="+ setName(): void" style="text;strokeColor=none;fillColor=none;align=left;verticalAlign=top;spacingLeft=4;spacingRight=4;overflow=hidden;rotatable=0;points=[[0,0.5],[1,0.5]];portConstraint=eastwest;whiteSpace=wrap;html=1;" vertex="1" parent="9tX9sQvc6Bi1-8wxv7hh-49">
          <mxGeometry y="294" width="380" height="26" as="geometry" />
        </mxCell>
        <mxCell id="9tX9sQvc6Bi1-8wxv7hh-112" value="+ getName(): string" style="text;strokeColor=none;fillColor=none;align=left;verticalAlign=top;spacingLeft=4;spacingRight=4;overflow=hidden;rotatable=0;points=[[0,0.5],[1,0.5]];portConstraint=eastwest;whiteSpace=wrap;html=1;" vertex="1" parent="9tX9sQvc6Bi1-8wxv7hh-49">
          <mxGeometry y="320" width="380" height="26" as="geometry" />
        </mxCell>
        <mxCell id="9tX9sQvc6Bi1-8wxv7hh-111" value="+ setAge(): void" style="text;strokeColor=none;fillColor=none;align=left;verticalAlign=top;spacingLeft=4;spacingRight=4;overflow=hidden;rotatable=0;points=[[0,0.5],[1,0.5]];portConstraint=eastwest;whiteSpace=wrap;html=1;" vertex="1" parent="9tX9sQvc6Bi1-8wxv7hh-49">
          <mxGeometry y="346" width="380" height="26" as="geometry" />
        </mxCell>
        <mxCell id="9tX9sQvc6Bi1-8wxv7hh-58" value="+ getAge(): int" style="text;strokeColor=none;fillColor=none;align=left;verticalAlign=top;spacingLeft=4;spacingRight=4;overflow=hidden;rotatable=0;points=[[0,0.5],[1,0.5]];portConstraint=eastwest;whiteSpace=wrap;html=1;" vertex="1" parent="9tX9sQvc6Bi1-8wxv7hh-49">
          <mxGeometry y="372" width="380" height="26" as="geometry" />
        </mxCell>
        <mxCell id="9tX9sQvc6Bi1-8wxv7hh-113" value="+ setTele(): void" style="text;strokeColor=none;fillColor=none;align=left;verticalAlign=top;spacingLeft=4;spacingRight=4;overflow=hidden;rotatable=0;points=[[0,0.5],[1,0.5]];portConstraint=eastwest;whiteSpace=wrap;html=1;" vertex="1" parent="9tX9sQvc6Bi1-8wxv7hh-49">
          <mxGeometry y="398" width="380" height="26" as="geometry" />
        </mxCell>
        <mxCell id="9tX9sQvc6Bi1-8wxv7hh-61" value="+ getTele(): string" style="text;strokeColor=none;fillColor=none;align=left;verticalAlign=top;spacingLeft=4;spacingRight=4;overflow=hidden;rotatable=0;points=[[0,0.5],[1,0.5]];portConstraint=eastwest;whiteSpace=wrap;html=1;" vertex="1" parent="9tX9sQvc6Bi1-8wxv7hh-49">
          <mxGeometry y="424" width="380" height="26" as="geometry" />
        </mxCell>
        <mxCell id="9tX9sQvc6Bi1-8wxv7hh-114" value="+ setSex(): void" style="text;strokeColor=none;fillColor=none;align=left;verticalAlign=top;spacingLeft=4;spacingRight=4;overflow=hidden;rotatable=0;points=[[0,0.5],[1,0.5]];portConstraint=eastwest;whiteSpace=wrap;html=1;" vertex="1" parent="9tX9sQvc6Bi1-8wxv7hh-49">
          <mxGeometry y="450" width="380" height="26" as="geometry" />
        </mxCell>
        <mxCell id="9tX9sQvc6Bi1-8wxv7hh-59" value="+ getSex(): string" style="text;strokeColor=none;fillColor=none;align=left;verticalAlign=top;spacingLeft=4;spacingRight=4;overflow=hidden;rotatable=0;points=[[0,0.5],[1,0.5]];portConstraint=eastwest;whiteSpace=wrap;html=1;" vertex="1" parent="9tX9sQvc6Bi1-8wxv7hh-49">
          <mxGeometry y="476" width="380" height="26" as="geometry" />
        </mxCell>
        <mxCell id="9tX9sQvc6Bi1-8wxv7hh-116" value="+ setIndiv(): void" style="text;strokeColor=none;fillColor=none;align=left;verticalAlign=top;spacingLeft=4;spacingRight=4;overflow=hidden;rotatable=0;points=[[0,0.5],[1,0.5]];portConstraint=eastwest;whiteSpace=wrap;html=1;" vertex="1" parent="9tX9sQvc6Bi1-8wxv7hh-49">
          <mxGeometry y="502" width="380" height="26" as="geometry" />
        </mxCell>
        <mxCell id="9tX9sQvc6Bi1-8wxv7hh-119" value="+ getIndiv(): string" style="text;strokeColor=none;fillColor=none;align=left;verticalAlign=top;spacingLeft=4;spacingRight=4;overflow=hidden;rotatable=0;points=[[0,0.5],[1,0.5]];portConstraint=eastwest;whiteSpace=wrap;html=1;" vertex="1" parent="9tX9sQvc6Bi1-8wxv7hh-49">
          <mxGeometry y="528" width="380" height="26" as="geometry" />
        </mxCell>
        <mxCell id="9tX9sQvc6Bi1-8wxv7hh-62" value="+ display(): virtual void" style="text;strokeColor=none;fillColor=none;align=left;verticalAlign=top;spacingLeft=4;spacingRight=4;overflow=hidden;rotatable=0;points=[[0,0.5],[1,0.5]];portConstraint=eastwest;whiteSpace=wrap;html=1;" vertex="1" parent="9tX9sQvc6Bi1-8wxv7hh-49">
          <mxGeometry y="554" width="380" height="26" as="geometry" />
        </mxCell>
        <mxCell id="9tX9sQvc6Bi1-8wxv7hh-64" value="+ money(): virtual long = 0" style="text;strokeColor=none;fillColor=none;align=left;verticalAlign=top;spacingLeft=4;spacingRight=4;overflow=hidden;rotatable=0;points=[[0,0.5],[1,0.5]];portConstraint=eastwest;whiteSpace=wrap;html=1;" vertex="1" parent="9tX9sQvc6Bi1-8wxv7hh-49">
          <mxGeometry y="580" width="380" height="26" as="geometry" />
        </mxCell>
        <mxCell id="9tX9sQvc6Bi1-8wxv7hh-60" value="+ findIndiv(p: vector&amp;lt;Person*&amp;gt;): static vector&amp;lt;Person*&amp;gt;" style="text;strokeColor=none;fillColor=none;align=left;verticalAlign=top;spacingLeft=4;spacingRight=4;overflow=hidden;rotatable=0;points=[[0,0.5],[1,0.5]];portConstraint=eastwest;whiteSpace=wrap;html=1;" vertex="1" parent="9tX9sQvc6Bi1-8wxv7hh-49">
          <mxGeometry y="606" width="380" height="26" as="geometry" />
        </mxCell>
        <mxCell id="9tX9sQvc6Bi1-8wxv7hh-80" value="Employee" style="swimlane;fontStyle=1;align=center;verticalAlign=top;childLayout=stackLayout;horizontal=1;startSize=26;horizontalStack=0;resizeParent=1;resizeParentMax=0;resizeLast=0;collapsible=1;marginBottom=0;whiteSpace=wrap;html=1;" vertex="1" parent="WIyWlLk6GJQsqaUBKTNV-1">
          <mxGeometry x="480" y="970" width="560" height="320" as="geometry">
            <mxRectangle x="1020" y="480" width="80" height="30" as="alternateBounds" />
          </mxGeometry>
        </mxCell>
        <mxCell id="9tX9sQvc6Bi1-8wxv7hh-81" value="- hour: int" style="text;strokeColor=none;fillColor=none;align=left;verticalAlign=top;spacingLeft=4;spacingRight=4;overflow=hidden;rotatable=0;points=[[0,0.5],[1,0.5]];portConstraint=eastwest;whiteSpace=wrap;html=1;" vertex="1" parent="9tX9sQvc6Bi1-8wxv7hh-80">
          <mxGeometry y="26" width="560" height="26" as="geometry" />
        </mxCell>
        <mxCell id="9tX9sQvc6Bi1-8wxv7hh-82" value="- salary: long" style="text;strokeColor=none;fillColor=none;align=left;verticalAlign=top;spacingLeft=4;spacingRight=4;overflow=hidden;rotatable=0;points=[[0,0.5],[1,0.5]];portConstraint=eastwest;whiteSpace=wrap;html=1;" vertex="1" parent="9tX9sQvc6Bi1-8wxv7hh-80">
          <mxGeometry y="52" width="560" height="26" as="geometry" />
        </mxCell>
        <mxCell id="9tX9sQvc6Bi1-8wxv7hh-85" value="" style="line;strokeWidth=1;fillColor=none;align=left;verticalAlign=middle;spacingTop=-1;spacingLeft=3;spacingRight=3;rotatable=0;labelPosition=right;points=[];portConstraint=eastwest;strokeColor=inherit;" vertex="1" parent="9tX9sQvc6Bi1-8wxv7hh-80">
          <mxGeometry y="78" width="560" height="8" as="geometry" />
        </mxCell>
        <mxCell id="9tX9sQvc6Bi1-8wxv7hh-86" value="+ Employee()" style="text;strokeColor=none;fillColor=none;align=left;verticalAlign=top;spacingLeft=4;spacingRight=4;overflow=hidden;rotatable=0;points=[[0,0.5],[1,0.5]];portConstraint=eastwest;whiteSpace=wrap;html=1;" vertex="1" parent="9tX9sQvc6Bi1-8wxv7hh-80">
          <mxGeometry y="86" width="560" height="26" as="geometry" />
        </mxCell>
        <mxCell id="9tX9sQvc6Bi1-8wxv7hh-87" value="+ Employee(id: int, name: string, age: int, tele: string, sex: string, indiv: string,&amp;nbsp;hour: int, salary: long)" style="text;strokeColor=none;fillColor=none;align=left;verticalAlign=top;spacingLeft=4;spacingRight=4;overflow=hidden;rotatable=0;points=[[0,0.5],[1,0.5]];portConstraint=eastwest;whiteSpace=wrap;html=1;" vertex="1" parent="9tX9sQvc6Bi1-8wxv7hh-80">
          <mxGeometry y="112" width="560" height="26" as="geometry" />
        </mxCell>
        <mxCell id="9tX9sQvc6Bi1-8wxv7hh-88" value="+ setHour(): void" style="text;strokeColor=none;fillColor=none;align=left;verticalAlign=top;spacingLeft=4;spacingRight=4;overflow=hidden;rotatable=0;points=[[0,0.5],[1,0.5]];portConstraint=eastwest;whiteSpace=wrap;html=1;" vertex="1" parent="9tX9sQvc6Bi1-8wxv7hh-80">
          <mxGeometry y="138" width="560" height="26" as="geometry" />
        </mxCell>
        <mxCell id="9tX9sQvc6Bi1-8wxv7hh-89" value="+ getHour(): int" style="text;strokeColor=none;fillColor=none;align=left;verticalAlign=top;spacingLeft=4;spacingRight=4;overflow=hidden;rotatable=0;points=[[0,0.5],[1,0.5]];portConstraint=eastwest;whiteSpace=wrap;html=1;" vertex="1" parent="9tX9sQvc6Bi1-8wxv7hh-80">
          <mxGeometry y="164" width="560" height="26" as="geometry" />
        </mxCell>
        <mxCell id="9tX9sQvc6Bi1-8wxv7hh-90" value="+ setSalary(): void" style="text;strokeColor=none;fillColor=none;align=left;verticalAlign=top;spacingLeft=4;spacingRight=4;overflow=hidden;rotatable=0;points=[[0,0.5],[1,0.5]];portConstraint=eastwest;whiteSpace=wrap;html=1;" vertex="1" parent="9tX9sQvc6Bi1-8wxv7hh-80">
          <mxGeometry y="190" width="560" height="26" as="geometry" />
        </mxCell>
        <mxCell id="9tX9sQvc6Bi1-8wxv7hh-91" value="+ getSalary(): long" style="text;strokeColor=none;fillColor=none;align=left;verticalAlign=top;spacingLeft=4;spacingRight=4;overflow=hidden;rotatable=0;points=[[0,0.5],[1,0.5]];portConstraint=eastwest;whiteSpace=wrap;html=1;" vertex="1" parent="9tX9sQvc6Bi1-8wxv7hh-80">
          <mxGeometry y="216" width="560" height="26" as="geometry" />
        </mxCell>
        <mxCell id="9tX9sQvc6Bi1-8wxv7hh-92" value="+ display(): void" style="text;strokeColor=none;fillColor=none;align=left;verticalAlign=top;spacingLeft=4;spacingRight=4;overflow=hidden;rotatable=0;points=[[0,0.5],[1,0.5]];portConstraint=eastwest;whiteSpace=wrap;html=1;" vertex="1" parent="9tX9sQvc6Bi1-8wxv7hh-80">
          <mxGeometry y="242" width="560" height="26" as="geometry" />
        </mxCell>
        <mxCell id="9tX9sQvc6Bi1-8wxv7hh-93" value="+ total(): long" style="text;strokeColor=none;fillColor=none;align=left;verticalAlign=top;spacingLeft=4;spacingRight=4;overflow=hidden;rotatable=0;points=[[0,0.5],[1,0.5]];portConstraint=eastwest;whiteSpace=wrap;html=1;" vertex="1" parent="9tX9sQvc6Bi1-8wxv7hh-80">
          <mxGeometry y="268" width="560" height="26" as="geometry" />
        </mxCell>
        <mxCell id="9tX9sQvc6Bi1-8wxv7hh-94" value="+ getMaxTotal(e: vector&amp;lt;Employee&amp;gt;): static vector&amp;lt;Employee&amp;gt;" style="text;strokeColor=none;fillColor=none;align=left;verticalAlign=top;spacingLeft=4;spacingRight=4;overflow=hidden;rotatable=0;points=[[0,0.5],[1,0.5]];portConstraint=eastwest;whiteSpace=wrap;html=1;" vertex="1" parent="9tX9sQvc6Bi1-8wxv7hh-80">
          <mxGeometry y="294" width="560" height="26" as="geometry" />
        </mxCell>
        <mxCell id="9tX9sQvc6Bi1-8wxv7hh-133" value="Customer" style="swimlane;fontStyle=1;align=center;verticalAlign=top;childLayout=stackLayout;horizontal=1;startSize=26;horizontalStack=0;resizeParent=1;resizeParentMax=0;resizeLast=0;collapsible=1;marginBottom=0;whiteSpace=wrap;html=1;" vertex="1" parent="WIyWlLk6GJQsqaUBKTNV-1">
          <mxGeometry x="1290" y="970" width="620" height="346" as="geometry">
            <mxRectangle x="1020" y="480" width="80" height="30" as="alternateBounds" />
          </mxGeometry>
        </mxCell>
        <mxCell id="9tX9sQvc6Bi1-8wxv7hh-134" value="- material: int" style="text;strokeColor=none;fillColor=none;align=left;verticalAlign=top;spacingLeft=4;spacingRight=4;overflow=hidden;rotatable=0;points=[[0,0.5],[1,0.5]];portConstraint=eastwest;whiteSpace=wrap;html=1;" vertex="1" parent="9tX9sQvc6Bi1-8wxv7hh-133">
          <mxGeometry y="26" width="620" height="26" as="geometry" />
        </mxCell>
        <mxCell id="9tX9sQvc6Bi1-8wxv7hh-135" value="- cash: long" style="text;strokeColor=none;fillColor=none;align=left;verticalAlign=top;spacingLeft=4;spacingRight=4;overflow=hidden;rotatable=0;points=[[0,0.5],[1,0.5]];portConstraint=eastwest;whiteSpace=wrap;html=1;" vertex="1" parent="9tX9sQvc6Bi1-8wxv7hh-133">
          <mxGeometry y="52" width="620" height="26" as="geometry" />
        </mxCell>
        <mxCell id="9tX9sQvc6Bi1-8wxv7hh-136" value="" style="line;strokeWidth=1;fillColor=none;align=left;verticalAlign=middle;spacingTop=-1;spacingLeft=3;spacingRight=3;rotatable=0;labelPosition=right;points=[];portConstraint=eastwest;strokeColor=inherit;" vertex="1" parent="9tX9sQvc6Bi1-8wxv7hh-133">
          <mxGeometry y="78" width="620" height="8" as="geometry" />
        </mxCell>
        <mxCell id="9tX9sQvc6Bi1-8wxv7hh-137" value="+ Customer()" style="text;strokeColor=none;fillColor=none;align=left;verticalAlign=top;spacingLeft=4;spacingRight=4;overflow=hidden;rotatable=0;points=[[0,0.5],[1,0.5]];portConstraint=eastwest;whiteSpace=wrap;html=1;" vertex="1" parent="9tX9sQvc6Bi1-8wxv7hh-133">
          <mxGeometry y="86" width="620" height="26" as="geometry" />
        </mxCell>
        <mxCell id="9tX9sQvc6Bi1-8wxv7hh-138" value="+ Customer(id: int, name: string, age: int, tele: string, sex: string, indiv: string,&amp;nbsp;material: int, cash: long)" style="text;strokeColor=none;fillColor=none;align=left;verticalAlign=top;spacingLeft=4;spacingRight=4;overflow=hidden;rotatable=0;points=[[0,0.5],[1,0.5]];portConstraint=eastwest;whiteSpace=wrap;html=1;" vertex="1" parent="9tX9sQvc6Bi1-8wxv7hh-133">
          <mxGeometry y="112" width="620" height="26" as="geometry" />
        </mxCell>
        <mxCell id="9tX9sQvc6Bi1-8wxv7hh-139" value="+ setMaterial(): void" style="text;strokeColor=none;fillColor=none;align=left;verticalAlign=top;spacingLeft=4;spacingRight=4;overflow=hidden;rotatable=0;points=[[0,0.5],[1,0.5]];portConstraint=eastwest;whiteSpace=wrap;html=1;" vertex="1" parent="9tX9sQvc6Bi1-8wxv7hh-133">
          <mxGeometry y="138" width="620" height="26" as="geometry" />
        </mxCell>
        <mxCell id="9tX9sQvc6Bi1-8wxv7hh-140" value="+ getMaterial(): int" style="text;strokeColor=none;fillColor=none;align=left;verticalAlign=top;spacingLeft=4;spacingRight=4;overflow=hidden;rotatable=0;points=[[0,0.5],[1,0.5]];portConstraint=eastwest;whiteSpace=wrap;html=1;" vertex="1" parent="9tX9sQvc6Bi1-8wxv7hh-133">
          <mxGeometry y="164" width="620" height="26" as="geometry" />
        </mxCell>
        <mxCell id="9tX9sQvc6Bi1-8wxv7hh-141" value="+ setCash(): void" style="text;strokeColor=none;fillColor=none;align=left;verticalAlign=top;spacingLeft=4;spacingRight=4;overflow=hidden;rotatable=0;points=[[0,0.5],[1,0.5]];portConstraint=eastwest;whiteSpace=wrap;html=1;" vertex="1" parent="9tX9sQvc6Bi1-8wxv7hh-133">
          <mxGeometry y="190" width="620" height="26" as="geometry" />
        </mxCell>
        <mxCell id="9tX9sQvc6Bi1-8wxv7hh-146" value="+ getCash(): long" style="text;strokeColor=none;fillColor=none;align=left;verticalAlign=top;spacingLeft=4;spacingRight=4;overflow=hidden;rotatable=0;points=[[0,0.5],[1,0.5]];portConstraint=eastwest;whiteSpace=wrap;html=1;" vertex="1" parent="9tX9sQvc6Bi1-8wxv7hh-133">
          <mxGeometry y="216" width="620" height="26" as="geometry" />
        </mxCell>
        <mxCell id="9tX9sQvc6Bi1-8wxv7hh-143" value="+ display(): void" style="text;strokeColor=none;fillColor=none;align=left;verticalAlign=top;spacingLeft=4;spacingRight=4;overflow=hidden;rotatable=0;points=[[0,0.5],[1,0.5]];portConstraint=eastwest;whiteSpace=wrap;html=1;" vertex="1" parent="9tX9sQvc6Bi1-8wxv7hh-133">
          <mxGeometry y="242" width="620" height="26" as="geometry" />
        </mxCell>
        <mxCell id="9tX9sQvc6Bi1-8wxv7hh-144" value="+ total(): long" style="text;strokeColor=none;fillColor=none;align=left;verticalAlign=top;spacingLeft=4;spacingRight=4;overflow=hidden;rotatable=0;points=[[0,0.5],[1,0.5]];portConstraint=eastwest;whiteSpace=wrap;html=1;" vertex="1" parent="9tX9sQvc6Bi1-8wxv7hh-133">
          <mxGeometry y="268" width="620" height="26" as="geometry" />
        </mxCell>
        <mxCell id="9tX9sQvc6Bi1-8wxv7hh-145" value="+ getMaxTotal(c: vector&amp;lt;Customer&amp;gt;): static vector&amp;lt;Customer&amp;gt;" style="text;strokeColor=none;fillColor=none;align=left;verticalAlign=top;spacingLeft=4;spacingRight=4;overflow=hidden;rotatable=0;points=[[0,0.5],[1,0.5]];portConstraint=eastwest;whiteSpace=wrap;html=1;" vertex="1" parent="9tX9sQvc6Bi1-8wxv7hh-133">
          <mxGeometry y="294" width="620" height="26" as="geometry" />
        </mxCell>
        <mxCell id="9tX9sQvc6Bi1-8wxv7hh-165" value="+ getTotalOrder(c: vector&amp;lt;Customer&amp;gt;): static vector&amp;lt;Customer&amp;gt;" style="text;strokeColor=none;fillColor=none;align=left;verticalAlign=top;spacingLeft=4;spacingRight=4;overflow=hidden;rotatable=0;points=[[0,0.5],[1,0.5]];portConstraint=eastwest;whiteSpace=wrap;html=1;" vertex="1" parent="9tX9sQvc6Bi1-8wxv7hh-133">
          <mxGeometry y="320" width="620" height="26" as="geometry" />
        </mxCell>
        <mxCell id="9tX9sQvc6Bi1-8wxv7hh-147" value="Extends" style="endArrow=block;endSize=16;endFill=0;html=1;rounded=0;exitX=0.5;exitY=0;exitDx=0;exitDy=0;entryX=0.395;entryY=1.051;entryDx=0;entryDy=0;entryPerimeter=0;" edge="1" parent="WIyWlLk6GJQsqaUBKTNV-1" source="9tX9sQvc6Bi1-8wxv7hh-80" target="9tX9sQvc6Bi1-8wxv7hh-60">
          <mxGeometry width="160" relative="1" as="geometry">
            <mxPoint x="960" y="930" as="sourcePoint" />
            <mxPoint x="1150" y="920" as="targetPoint" />
            <Array as="points">
              <mxPoint x="760" y="930" />
              <mxPoint x="1150" y="930" />
            </Array>
          </mxGeometry>
        </mxCell>
        <mxCell id="9tX9sQvc6Bi1-8wxv7hh-148" value="Extends" style="endArrow=block;endSize=16;endFill=0;html=1;rounded=0;exitX=0.5;exitY=0;exitDx=0;exitDy=0;entryX=0.581;entryY=1.103;entryDx=0;entryDy=0;entryPerimeter=0;" edge="1" parent="WIyWlLk6GJQsqaUBKTNV-1" source="9tX9sQvc6Bi1-8wxv7hh-133" target="9tX9sQvc6Bi1-8wxv7hh-60">
          <mxGeometry width="160" relative="1" as="geometry">
            <mxPoint x="745" y="980" as="sourcePoint" />
            <mxPoint x="1160" y="905" as="targetPoint" />
            <Array as="points">
              <mxPoint x="1600" y="930" />
              <mxPoint x="1221" y="930" />
            </Array>
          </mxGeometry>
        </mxCell>
        <mxCell id="9tX9sQvc6Bi1-8wxv7hh-150" value="Card" style="swimlane;fontStyle=1;align=center;verticalAlign=top;childLayout=stackLayout;horizontal=1;startSize=26;horizontalStack=0;resizeParent=1;resizeParentMax=0;resizeLast=0;collapsible=1;marginBottom=0;whiteSpace=wrap;html=1;" vertex="1" parent="WIyWlLk6GJQsqaUBKTNV-1">
          <mxGeometry x="1680" y="1410" width="640" height="320" as="geometry">
            <mxRectangle x="1020" y="480" width="80" height="30" as="alternateBounds" />
          </mxGeometry>
        </mxCell>
        <mxCell id="9tX9sQvc6Bi1-8wxv7hh-166" value="- Customer customer" style="text;strokeColor=none;fillColor=none;align=left;verticalAlign=top;spacingLeft=4;spacingRight=4;overflow=hidden;rotatable=0;points=[[0,0.5],[1,0.5]];portConstraint=eastwest;whiteSpace=wrap;html=1;" vertex="1" parent="9tX9sQvc6Bi1-8wxv7hh-150">
          <mxGeometry y="26" width="640" height="26" as="geometry" />
        </mxCell>
        <mxCell id="9tX9sQvc6Bi1-8wxv7hh-152" value="- coupon: long" style="text;strokeColor=none;fillColor=none;align=left;verticalAlign=top;spacingLeft=4;spacingRight=4;overflow=hidden;rotatable=0;points=[[0,0.5],[1,0.5]];portConstraint=eastwest;whiteSpace=wrap;html=1;" vertex="1" parent="9tX9sQvc6Bi1-8wxv7hh-150">
          <mxGeometry y="52" width="640" height="26" as="geometry" />
        </mxCell>
        <mxCell id="9tX9sQvc6Bi1-8wxv7hh-153" value="" style="line;strokeWidth=1;fillColor=none;align=left;verticalAlign=middle;spacingTop=-1;spacingLeft=3;spacingRight=3;rotatable=0;labelPosition=right;points=[];portConstraint=eastwest;strokeColor=inherit;" vertex="1" parent="9tX9sQvc6Bi1-8wxv7hh-150">
          <mxGeometry y="78" width="640" height="8" as="geometry" />
        </mxCell>
        <mxCell id="9tX9sQvc6Bi1-8wxv7hh-154" value="+ Card()" style="text;strokeColor=none;fillColor=none;align=left;verticalAlign=top;spacingLeft=4;spacingRight=4;overflow=hidden;rotatable=0;points=[[0,0.5],[1,0.5]];portConstraint=eastwest;whiteSpace=wrap;html=1;" vertex="1" parent="9tX9sQvc6Bi1-8wxv7hh-150">
          <mxGeometry y="86" width="640" height="26" as="geometry" />
        </mxCell>
        <mxCell id="9tX9sQvc6Bi1-8wxv7hh-155" value="+ Card(id: int, Customer customer, type: string, coupon: long)" style="text;strokeColor=none;fillColor=none;align=left;verticalAlign=top;spacingLeft=4;spacingRight=4;overflow=hidden;rotatable=0;points=[[0,0.5],[1,0.5]];portConstraint=eastwest;whiteSpace=wrap;html=1;" vertex="1" parent="9tX9sQvc6Bi1-8wxv7hh-150">
          <mxGeometry y="112" width="640" height="26" as="geometry" />
        </mxCell>
        <mxCell id="9tX9sQvc6Bi1-8wxv7hh-171" value="+ getId(): int" style="text;strokeColor=none;fillColor=none;align=left;verticalAlign=top;spacingLeft=4;spacingRight=4;overflow=hidden;rotatable=0;points=[[0,0.5],[1,0.5]];portConstraint=eastwest;whiteSpace=wrap;html=1;" vertex="1" parent="9tX9sQvc6Bi1-8wxv7hh-150">
          <mxGeometry y="138" width="640" height="26" as="geometry" />
        </mxCell>
        <mxCell id="9tX9sQvc6Bi1-8wxv7hh-173" value="+ setCustomer(customer: Customer): void" style="text;strokeColor=none;fillColor=none;align=left;verticalAlign=top;spacingLeft=4;spacingRight=4;overflow=hidden;rotatable=0;points=[[0,0.5],[1,0.5]];portConstraint=eastwest;whiteSpace=wrap;html=1;" vertex="1" parent="9tX9sQvc6Bi1-8wxv7hh-150">
          <mxGeometry y="164" width="640" height="26" as="geometry" />
        </mxCell>
        <mxCell id="9tX9sQvc6Bi1-8wxv7hh-172" value="+ getCustomer(): Customer" style="text;strokeColor=none;fillColor=none;align=left;verticalAlign=top;spacingLeft=4;spacingRight=4;overflow=hidden;rotatable=0;points=[[0,0.5],[1,0.5]];portConstraint=eastwest;whiteSpace=wrap;html=1;" vertex="1" parent="9tX9sQvc6Bi1-8wxv7hh-150">
          <mxGeometry y="190" width="640" height="26" as="geometry" />
        </mxCell>
        <mxCell id="9tX9sQvc6Bi1-8wxv7hh-158" value="+ setCoupon(): void" style="text;strokeColor=none;fillColor=none;align=left;verticalAlign=top;spacingLeft=4;spacingRight=4;overflow=hidden;rotatable=0;points=[[0,0.5],[1,0.5]];portConstraint=eastwest;whiteSpace=wrap;html=1;" vertex="1" parent="9tX9sQvc6Bi1-8wxv7hh-150">
          <mxGeometry y="216" width="640" height="26" as="geometry" />
        </mxCell>
        <mxCell id="9tX9sQvc6Bi1-8wxv7hh-159" value="+ getCoupon(): long" style="text;strokeColor=none;fillColor=none;align=left;verticalAlign=top;spacingLeft=4;spacingRight=4;overflow=hidden;rotatable=0;points=[[0,0.5],[1,0.5]];portConstraint=eastwest;whiteSpace=wrap;html=1;" vertex="1" parent="9tX9sQvc6Bi1-8wxv7hh-150">
          <mxGeometry y="242" width="640" height="26" as="geometry" />
        </mxCell>
        <mxCell id="9tX9sQvc6Bi1-8wxv7hh-160" value="+ display(): void" style="text;strokeColor=none;fillColor=none;align=left;verticalAlign=top;spacingLeft=4;spacingRight=4;overflow=hidden;rotatable=0;points=[[0,0.5],[1,0.5]];portConstraint=eastwest;whiteSpace=wrap;html=1;" vertex="1" parent="9tX9sQvc6Bi1-8wxv7hh-150">
          <mxGeometry y="268" width="640" height="26" as="geometry" />
        </mxCell>
        <mxCell id="9tX9sQvc6Bi1-8wxv7hh-161" value="+ getAfterDiscount(): long" style="text;strokeColor=none;fillColor=none;align=left;verticalAlign=top;spacingLeft=4;spacingRight=4;overflow=hidden;rotatable=0;points=[[0,0.5],[1,0.5]];portConstraint=eastwest;whiteSpace=wrap;html=1;" vertex="1" parent="9tX9sQvc6Bi1-8wxv7hh-150">
          <mxGeometry y="294" width="640" height="26" as="geometry" />
        </mxCell>
        <mxCell id="9tX9sQvc6Bi1-8wxv7hh-174" value="" style="endArrow=diamondThin;endFill=0;endSize=24;html=1;rounded=0;entryX=0.5;entryY=0;entryDx=0;entryDy=0;exitX=0.465;exitY=1.158;exitDx=0;exitDy=0;exitPerimeter=0;" edge="1" parent="WIyWlLk6GJQsqaUBKTNV-1" source="9tX9sQvc6Bi1-8wxv7hh-165" target="9tX9sQvc6Bi1-8wxv7hh-150">
          <mxGeometry width="160" relative="1" as="geometry">
            <mxPoint x="1680" y="1200" as="sourcePoint" />
            <mxPoint x="1840" y="1200" as="targetPoint" />
            <Array as="points">
              <mxPoint x="1578" y="1340" />
              <mxPoint x="2000" y="1340" />
            </Array>
          </mxGeometry>
        </mxCell>
      </root>
    </mxGraphModel>
  </diagram>
</mxfile>
